<svg xmlns="http://www.w3.org/2000/svg" xmlns:xlink="http://www.w3.org/1999/xlink" width="500" zoomAndPan="magnify" viewBox="0 0 375 374.999991" height="500" preserveAspectRatio="xMidYMid meet" version="1.0"><defs><clipPath id="19a595bdb4"><path d="M 141.160156 143.859375 L 234 143.859375 L 234 242 L 141.160156 242 Z M 141.160156 143.859375 " clip-rule="nonzero"/></clipPath><clipPath id="eb69c7c084"><path d="M 224.273438 143.863281 L 238.523438 143.863281 L 238.523438 156.609375 L 224.273438 156.609375 Z M 224.273438 143.863281 " clip-rule="nonzero"/></clipPath><clipPath id="8382228436"><path d="M 224.273438 143.859375 L 238.523438 143.859375 L 238.523438 156.609375 L 224.273438 156.609375 Z M 224.273438 143.859375 " clip-rule="nonzero"/></clipPath></defs><g clip-path="url(#19a595bdb4)"><path fill="#38b6ff" d="M 175.316406 185.960938 C 177.636719 185.960938 179.515625 187.839844 179.515625 190.160156 C 179.515625 192.476562 177.636719 194.359375 175.316406 194.359375 C 173 194.359375 171.117188 192.476562 171.117188 190.160156 C 171.121094 187.84375 173 185.960938 175.316406 185.960938 M 187.496094 185.960938 C 189.8125 185.960938 191.695312 187.839844 191.695312 190.160156 C 191.695312 192.476562 189.8125 194.359375 187.496094 194.359375 C 185.175781 194.359375 183.296875 192.476562 183.296875 190.160156 C 183.296875 187.84375 185.175781 185.960938 187.496094 185.960938 Z M 199.671875 185.960938 C 201.996094 185.960938 203.875 187.839844 203.875 190.160156 C 203.875 192.476562 201.996094 194.359375 199.671875 194.359375 C 197.355469 194.359375 195.476562 192.476562 195.476562 190.160156 C 195.472656 187.84375 197.351562 185.960938 199.671875 185.960938 Z M 188.101562 231.324219 C 187.519531 231.167969 186.882812 231.230469 186.328125 231.546875 L 186.332031 231.554688 C 185.777344 231.875 185.402344 232.394531 185.246094 232.96875 C 185.089844 233.546875 185.15625 234.183594 185.472656 234.734375 L 185.480469 234.757812 C 185.796875 235.300781 186.3125 235.667969 186.890625 235.824219 C 187.472656 235.980469 188.105469 235.917969 188.660156 235.601562 L 188.660156 235.597656 C 189.214844 235.273438 189.589844 234.757812 189.746094 234.179688 C 189.898438 233.601562 189.835938 232.964844 189.519531 232.410156 L 189.511719 232.390625 C 189.195312 231.847656 188.675781 231.480469 188.101562 231.324219 Z M 179.707031 235.796875 C 168.953125 233.972656 159.460938 228.445312 152.59375 220.570312 C 145.492188 212.429688 141.191406 201.789062 141.191406 190.160156 C 141.191406 177.375 146.375 165.800781 154.757812 157.421875 C 163.132812 149.042969 174.710938 143.859375 187.496094 143.859375 C 200.28125 143.859375 211.855469 149.042969 220.234375 157.421875 C 228.613281 165.796875 233.796875 177.375 233.796875 190.160156 C 233.796875 198.410156 231.585938 206.367188 227.585938 213.300781 L 227.578125 213.308594 L 227.585938 213.308594 C 223.589844 220.226562 217.804688 226.117188 210.644531 230.25 C 209.660156 230.820312 208.480469 230.742188 207.597656 230.148438 L 192.5 221.472656 C 186.214844 222.480469 179.921875 221.546875 174.351562 219.011719 C 168.542969 216.363281 163.523438 211.960938 160.140625 206.175781 L 160.039062 206.019531 C 156.851562 200.496094 155.46875 194.289062 155.847656 188.199219 C 156.121094 183.851562 157.28125 179.5625 159.316406 175.613281 C 157.769531 172.796875 158.753906 169.246094 161.550781 167.632812 C 164.382812 165.996094 168.007812 166.964844 169.644531 169.800781 C 171.28125 172.636719 170.308594 176.257812 167.472656 177.894531 C 166.453125 178.484375 165.328125 178.734375 164.230469 178.679688 C 162.695312 181.792969 161.816406 185.144531 161.601562 188.539062 C 161.292969 193.53125 162.417969 198.613281 165.023438 203.128906 L 165.105469 203.28125 C 167.871094 208.003906 171.976562 211.609375 176.746094 213.777344 C 181.542969 215.960938 187.015625 216.683594 192.460938 215.625 C 193.253906 215.46875 194.03125 215.65625 194.644531 216.078125 L 206.332031 222.792969 L 206.359375 209.089844 C 206.359375 208.367188 206.625 207.703125 207.066406 207.199219 L 207.058594 207.191406 C 210.699219 203.007812 212.808594 197.90625 213.316406 192.664062 C 213.824219 187.40625 212.730469 181.992188 209.960938 177.195312 C 207.351562 172.675781 203.519531 169.160156 199.046875 166.9375 C 196 165.421875 192.644531 164.503906 189.179688 164.28125 C 188.675781 165.257812 187.898438 166.101562 186.875 166.691406 C 184.042969 168.328125 180.417969 167.355469 178.785156 164.519531 C 177.148438 161.6875 178.117188 158.0625 180.949219 156.425781 C 183.746094 154.8125 187.3125 155.734375 188.976562 158.480469 C 193.40625 158.691406 197.703125 159.824219 201.601562 161.765625 C 207.074219 164.488281 211.761719 168.785156 214.949219 174.300781 C 218.332031 180.164062 219.671875 186.78125 219.050781 193.203125 C 218.464844 199.296875 216.121094 205.210938 212.109375 210.152344 L 212.085938 222.375 C 216.382812 219.089844 219.9375 215.015625 222.589844 210.421875 L 222.597656 210.421875 C 226.085938 204.375 228.011719 197.410156 228.011719 190.160156 C 228.011719 178.96875 223.476562 168.835938 216.140625 161.503906 C 208.8125 154.171875 198.679688 149.636719 187.488281 149.636719 C 176.296875 149.636719 166.164062 154.171875 158.832031 161.503906 C 151.507812 168.839844 146.972656 178.96875 146.972656 190.160156 C 146.972656 200.359375 150.726562 209.667969 156.925781 216.777344 C 162.84375 223.566406 170.984375 228.363281 180.207031 230.039062 C 180.886719 228.628906 181.984375 227.40625 183.441406 226.5625 L 183.464844 226.554688 C 185.402344 225.445312 187.601562 225.214844 189.589844 225.75 C 191.582031 226.285156 193.378906 227.585938 194.5 229.527344 L 194.507812 229.523438 C 195.625 231.464844 195.855469 233.671875 195.320312 235.671875 C 194.785156 237.671875 193.484375 239.46875 191.546875 240.585938 L 191.523438 240.589844 C 189.589844 241.703125 187.390625 241.929688 185.402344 241.398438 C 183.410156 240.867188 181.613281 239.566406 180.492188 237.625 L 180.484375 237.628906 C 180.144531 237.035156 179.886719 236.425781 179.707031 235.796875 Z M 179.707031 235.796875 " fill-opacity="1" fill-rule="nonzero"/></g><g clip-path="url(#eb69c7c084)"><path fill="#313947" d="M 225.242188 155.894531 C 225.242188 155.890625 225.242188 155.886719 225.242188 155.882812 C 225.195312 155.660156 224.992188 155.496094 224.761719 155.496094 C 224.730469 155.496094 224.695312 155.5 224.660156 155.507812 C 224.53125 155.535156 224.421875 155.609375 224.351562 155.71875 C 224.28125 155.828125 224.257812 155.957031 224.285156 156.085938 C 224.320312 156.253906 224.445312 156.386719 224.605469 156.441406 C 224.703125 156.566406 224.863281 156.632812 225.023438 156.597656 C 225.25 156.550781 225.390625 156.324219 225.34375 156.09375 C 225.324219 156.015625 225.289062 155.949219 225.242188 155.894531 Z M 226.949219 154.144531 C 226.949219 154.101562 226.941406 154.058594 226.933594 154.015625 C 226.855469 153.660156 226.535156 153.402344 226.167969 153.402344 C 226.113281 153.402344 226.058594 153.40625 226.003906 153.417969 C 225.800781 153.464844 225.625 153.582031 225.511719 153.757812 C 225.398438 153.929688 225.359375 154.136719 225.402344 154.339844 C 225.445312 154.542969 225.566406 154.714844 225.734375 154.824219 C 225.890625 155.050781 226.171875 155.175781 226.453125 155.117188 C 226.832031 155.035156 227.070312 154.65625 226.988281 154.265625 C 226.980469 154.222656 226.964844 154.183594 226.949219 154.144531 Z M 238.515625 149.113281 C 238.5 148.878906 238.4375 148.652344 238.347656 148.4375 C 238.296875 148.015625 238.074219 147.621094 237.753906 147.339844 C 237.820312 146.972656 237.800781 146.59375 237.65625 146.230469 C 237.636719 146.175781 237.613281 146.125 237.585938 146.070312 C 237.570312 145.949219 237.535156 145.824219 237.488281 145.707031 C 237.320312 145.265625 236.964844 144.917969 236.554688 144.691406 C 235.636719 144.1875 234.523438 144.390625 233.828125 145.136719 C 233.789062 145.082031 233.746094 145.027344 233.699219 144.976562 C 233.371094 144.25 232.472656 143.910156 231.703125 143.867188 C 230.707031 143.808594 229.652344 144.246094 229.257812 145.203125 C 229.222656 145.289062 229.195312 145.371094 229.171875 145.460938 C 229.113281 145.574219 229.0625 145.691406 229.019531 145.820312 C 229.019531 145.828125 229.015625 145.835938 229.015625 145.84375 C 228.429688 145.460938 227.679688 145.390625 227.03125 145.679688 C 226.691406 145.832031 226.40625 146.09375 226.199219 146.398438 C 226.097656 146.542969 226.019531 146.703125 225.960938 146.867188 C 225.945312 146.910156 225.914062 147.132812 225.875 147.144531 C 225.785156 147.167969 225.703125 147.203125 225.621094 147.238281 C 224.949219 147.539062 224.503906 148.257812 224.511719 148.984375 C 224.515625 149.0625 224.519531 149.140625 224.53125 149.21875 C 224.527344 149.253906 224.523438 149.292969 224.519531 149.328125 C 224.4375 150.136719 224.90625 150.992188 225.59375 151.414062 C 225.550781 152.679688 226.722656 153.9375 227.972656 153.570312 C 228.484375 154.308594 229.292969 154.765625 230.191406 154.855469 C 230.910156 154.929688 231.671875 154.6875 232.179688 154.179688 C 232.507812 154.425781 232.914062 154.539062 233.34375 154.484375 C 233.703125 154.4375 234.066406 154.3125 234.324219 154.070312 C 234.597656 154.132812 234.890625 154.078125 235.113281 153.90625 C 235.535156 154.019531 235.984375 153.910156 236.335938 153.617188 C 236.613281 153.390625 236.753906 153.015625 236.761719 152.648438 C 237.152344 152.554688 237.507812 152.316406 237.71875 151.972656 C 237.933594 151.621094 237.964844 151.152344 237.90625 150.734375 C 238.292969 150.273438 238.566406 149.742188 238.515625 149.113281 " fill-opacity="1" fill-rule="nonzero"/></g><g clip-path="url(#8382228436)"><path fill="#ffffff" d="M 224.761719 155.601562 C 224.734375 155.601562 224.710938 155.605469 224.683594 155.613281 C 224.582031 155.632812 224.496094 155.691406 224.441406 155.777344 C 224.386719 155.863281 224.367188 155.964844 224.386719 156.0625 C 224.425781 156.234375 224.582031 156.363281 224.761719 156.363281 C 224.789062 156.363281 224.816406 156.359375 224.84375 156.355469 C 224.941406 156.332031 225.027344 156.273438 225.082031 156.1875 C 225.140625 156.105469 225.160156 156.003906 225.136719 155.902344 C 225.097656 155.730469 224.941406 155.601562 224.761719 155.601562 Z M 226.167969 153.507812 C 226.121094 153.507812 226.074219 153.511719 226.027344 153.523438 C 225.847656 153.5625 225.699219 153.664062 225.601562 153.8125 C 225.5 153.964844 225.46875 154.144531 225.507812 154.320312 C 225.574219 154.625 225.851562 154.851562 226.167969 154.851562 C 226.214844 154.851562 226.261719 154.84375 226.308594 154.835938 C 226.675781 154.757812 226.90625 154.398438 226.828125 154.039062 C 226.761719 153.730469 226.484375 153.507812 226.167969 153.507812 Z M 237.589844 149.96875 C 237.578125 149.980469 237.574219 149.992188 237.574219 150.003906 C 237.574219 150.007812 237.574219 150.015625 237.578125 150.019531 C 237.65625 150.371094 237.648438 150.777344 237.488281 151.105469 C 237.296875 151.492188 236.792969 151.664062 236.386719 151.636719 C 236.355469 151.632812 236.324219 151.671875 236.335938 151.703125 C 236.464844 152.042969 236.386719 152.417969 236.128906 152.679688 C 235.855469 152.960938 235.390625 152.984375 235.058594 152.800781 C 235.035156 152.789062 235 152.792969 234.984375 152.820312 C 234.84375 153.082031 234.476562 153.160156 234.242188 152.964844 C 234.210938 152.9375 234.171875 152.953125 234.152344 152.988281 C 234.027344 153.285156 233.605469 153.414062 233.320312 153.464844 C 232.847656 153.542969 232.378906 153.367188 232.113281 152.96875 C 232.089844 152.9375 232.039062 152.933594 232.019531 152.96875 C 231.621094 153.640625 230.820312 153.90625 230.066406 153.859375 C 229.167969 153.800781 228.367188 153.273438 227.945312 152.492188 C 227.933594 152.464844 227.898438 152.460938 227.871094 152.472656 C 226.726562 153.101562 225.5 151.792969 225.765625 150.652344 C 225.769531 150.632812 225.761719 150.605469 225.742188 150.59375 C 225.054688 150.304688 224.605469 149.617188 224.621094 148.882812 C 224.632812 148.121094 225.226562 147.433594 225.949219 147.230469 C 225.96875 147.226562 225.984375 147.214844 225.988281 147.195312 C 226.105469 146.546875 226.550781 145.988281 227.167969 145.734375 C 227.808594 145.472656 228.585938 145.613281 229.117188 146.046875 C 229.152344 146.074219 229.207031 146.058594 229.207031 146.011719 C 229.226562 145.433594 229.4375 144.898438 229.882812 144.515625 C 230.28125 144.175781 230.8125 144.011719 231.332031 143.976562 C 232.238281 143.910156 233.457031 144.277344 233.6875 145.269531 C 233.691406 145.289062 233.695312 145.304688 233.699219 145.324219 C 233.707031 145.359375 233.761719 145.375 233.789062 145.347656 C 234.433594 144.539062 235.503906 144.292969 236.4375 144.75 C 236.839844 144.949219 237.175781 145.277344 237.363281 145.683594 C 237.578125 146.140625 237.523438 146.660156 237.3125 147.109375 C 237.300781 147.132812 237.304688 147.167969 237.332031 147.179688 C 237.855469 147.453125 238.203125 147.96875 238.25 148.550781 C 238.292969 149.113281 237.960938 149.578125 237.589844 149.96875 " fill-opacity="1" fill-rule="nonzero"/></g></svg>